<svg xmlns="http://www.w3.org/2000/svg" height="40px" viewBox="0 -960 960 960" width="40px" fill="#2c9664"><path d="M446.67-766.67V-920h66.66v153.33h-66.66ZM706-659.33l-46.33-46.34 108-109.66 46.66 47.66L706-659.33Zm60.67 212.66v-66.66H920v66.66H766.67ZM446.67-40v-153.33h66.66V-40h-66.66ZM253.33-660.67l-108-107 47-46.66L300.67-706l-47.34 45.33ZM768-145.33l-108.33-109L705-299.67l110 106-47 48.34ZM40-446.67v-66.66h153.33v66.66H40Zm153 301.34-47.33-47L253-299.67l24.33 22.34L301.67-254 193-145.33ZM310-310q-70-70-70-170t70-170q70-70 170-70t170 70q70 70 70 170t-70 170q-70 70-170 70t-170-70Zm292.67-47.33Q653.33-408 653.33-480t-50.66-122.67Q552-653.33 480-653.33t-122.67 50.66Q306.67-552 306.67-480t50.66 122.67Q408-306.67 480-306.67t122.67-50.66ZM480-480Z"/></svg>